ModelForces
version=1
nRows=4
nColumns=155
inDegrees=no

This file contains the forces exerted on a model during a simulation.

A force is a generalized force, meaning that it can be either a force (N) or a torque (Nm).

Units are S.I. units (second, meters, Newtons, ...)
Angles are in degrees.

endheader
time	glut_med1_r	glut_med2_r	glut_med3_r	glut_min1_r	glut_min2_r	glut_min3_r	semimem_r	semiten_r	bifemlh_r	bifemsh_r	sar_r	add_long_r	add_brev_r	add_mag1_r	add_mag2_r	add_mag3_r	tfl_r	pect_r	grac_r	glut_max1_r	glut_max2_r	glut_max3_r	iliacus_r	psoas_r	quad_fem_r	gem_r	peri_r	rect_fem_r	vas_med_r	vas_int_r	vas_lat_r	med_gas_r	lat_gas_r	soleus_r	tib_post_r	flex_dig_r	flex_hal_r	tib_ant_r	per_brev_r	per_long_r	per_tert_r	ext_dig_r	ext_hal_r	glut_med1_l	glut_med2_l	glut_med3_l	glut_min1_l	glut_min2_l	glut_min3_l	semimem_l	semiten_l	bifemlh_l	bifemsh_l	sar_l	add_long_l	add_brev_l	add_mag1_l	add_mag2_l	add_mag3_l	tfl_l	pect_l	grac_l	glut_max1_l	glut_max2_l	glut_max3_l	iliacus_l	psoas_l	quad_fem_l	gem_l	peri_l	rect_fem_l	vas_med_l	vas_int_l	vas_lat_l	med_gas_l	lat_gas_l	soleus_l	tib_post_l	flex_dig_l	flex_hal_l	tib_ant_l	per_brev_l	per_long_l	per_tert_l	ext_dig_l	ext_hal_l	ercspn_r	ercspn_l	intobl_r	intobl_l	extobl_r	extobl_l	femur_lat_meniscii_r.femur_lat_r.force.X	femur_lat_meniscii_r.femur_lat_r.force.Y	femur_lat_meniscii_r.femur_lat_r.force.Z	femur_lat_meniscii_r.femur_lat_r.torque.X	femur_lat_meniscii_r.femur_lat_r.torque.Y	femur_lat_meniscii_r.femur_lat_r.torque.Z	femur_lat_meniscii_r.meniscus_lat_r.force.X	femur_lat_meniscii_r.meniscus_lat_r.force.Y	femur_lat_meniscii_r.meniscus_lat_r.force.Z	femur_lat_meniscii_r.meniscus_lat_r.torque.X	femur_lat_meniscii_r.meniscus_lat_r.torque.Y	femur_lat_meniscii_r.meniscus_lat_r.torque.Z	femur_med_meniscii_r.femur_med_r.force.X	femur_med_meniscii_r.femur_med_r.force.Y	femur_med_meniscii_r.femur_med_r.force.Z	femur_med_meniscii_r.femur_med_r.torque.X	femur_med_meniscii_r.femur_med_r.torque.Y	femur_med_meniscii_r.femur_med_r.torque.Z	femur_med_meniscii_r.meniscus_med_r.force.X	femur_med_meniscii_r.meniscus_med_r.force.Y	femur_med_meniscii_r.meniscus_med_r.force.Z	femur_med_meniscii_r.meniscus_med_r.torque.X	femur_med_meniscii_r.meniscus_med_r.torque.Y	femur_med_meniscii_r.meniscus_med_r.torque.Z	femur_med_tibia_r.tibia_upper_r.force.X	femur_med_tibia_r.tibia_upper_r.force.Y	femur_med_tibia_r.tibia_upper_r.force.Z	femur_med_tibia_r.tibia_upper_r.torque.X	femur_med_tibia_r.tibia_upper_r.torque.Y	femur_med_tibia_r.tibia_upper_r.torque.Z	femur_med_tibia_r.femur_med_r.force.X	femur_med_tibia_r.femur_med_r.force.Y	femur_med_tibia_r.femur_med_r.force.Z	femur_med_tibia_r.femur_med_r.torque.X	femur_med_tibia_r.femur_med_r.torque.Y	femur_med_tibia_r.femur_med_r.torque.Z	femur_lat_tibia_r.tibia_upper_r.force.X	femur_lat_tibia_r.tibia_upper_r.force.Y	femur_lat_tibia_r.tibia_upper_r.force.Z	femur_lat_tibia_r.tibia_upper_r.torque.X	femur_lat_tibia_r.tibia_upper_r.torque.Y	femur_lat_tibia_r.tibia_upper_r.torque.Z	femur_lat_tibia_r.femur_lat_r.force.X	femur_lat_tibia_r.femur_lat_r.force.Y	femur_lat_tibia_r.femur_lat_r.force.Z	femur_lat_tibia_r.femur_lat_r.torque.X	femur_lat_tibia_r.femur_lat_r.torque.Y	femur_lat_tibia_r.femur_lat_r.torque.Z	aACL_R	pACL_R	aPCL_R	pPCL_R	aMCL_R	mMCL_R	pMCL_R	aLCL_R	mLCL_R	pLCL_R	aPCL_L	pPCL_L	aMCL_L	aLCL_L
      0.10280956	      0.00000000	     11.75719744	     12.67383411	      5.35898614	      6.13415743	      6.76653251	    116.80937112	    171.16409141	    255.65585283	    387.39024843	    125.26212278	     11.75006634	      8.29249400	      0.00000000	      4.92742941	      8.83893619	      4.95490225	      0.00000000	     99.69705911	      7.59886497	     11.58143069	      8.74454085	     33.89762084	     25.76740092	      7.09345992	      4.70241829	      2.89194498	     39.80547438	      0.00000000	      0.00000000	      0.00000000	     16.00766903	      0.34048654	      0.00000000	      4.03281847	      4.79452308	      1.63017792	     32.03076166	      1.24367762	      3.29683834	      8.76537393	     17.63655309	      5.57067123	      0.00000000	     11.75719744	     12.67383411	      5.35898614	      6.13415743	      6.76653251	      0.00000000	      8.88144905	     14.92217432	     14.77612124	      3.05308679	     11.75006634	      8.29249400	      0.00000000	      4.92742941	      8.83893619	      7.05635742	      0.00000000	      3.16952421	      7.59886497	     11.58143069	      8.74454085	     33.89762084	     25.76740092	      7.09345992	      4.70241829	      2.89194498	     24.28205921	      0.00000000	      0.00000000	      0.00000000	     14.02270556	      7.60231775	     57.56089878	     58.30115004	      8.48177442	      7.91319180	     16.93155733	      9.68741913	     22.02013953	      3.97524746	     10.89232303	      3.66736805	     50.47843584	     50.47843584	     19.21644879	     19.21644879	     36.09294043	     36.09294043	     13.62610042	    165.91955742	     22.95610590	    -13.41908127	      0.38164608	      5.19894940	    -13.62610042	   -165.91955742	    -22.95610590	      5.02496371	     -0.64751852	      1.70520618	    -12.28017148	     18.68585275	     -0.21108505	      0.54455083	      0.30018053	     -5.03502706	     12.28017148	    -18.68585275	      0.21108505	     -0.41993008	     -0.26920884	      0.52674113	    -46.57765296	   -471.31542011	    122.57476726	    -11.55505271	      1.69175157	      2.14294703	     46.57765296	    471.31542011	   -122.57476726	     59.56107601	     -0.55219117	     20.48079803	    -62.85958359	   -368.88452872	    -87.31925577	     12.44240760	     -2.47587976	      1.49235418	     62.85958359	    368.88452872	     87.31925577	    -44.98696664	      1.43868250	     26.31758794	     28.60196444	     -1.90853676	      0.00000000	      0.00000000	      0.00000000	      0.00000000	    -33.60195148	      0.00000000	      0.00000000	      0.00000000	      0.00000000	      0.00000000	      0.00000001	      0.00000000
      0.10363232	      2.08757924	     11.69071309	     12.60345650	      5.32950429	      6.10162725	      6.73919192	    116.25744232	    170.00776813	    254.31712824	    386.20362787	    125.13759534	     11.68232922	      8.24727946	      0.00000000	      4.91943311	      8.78793561	      4.96505988	      0.00000000	     99.63833187	      7.55640059	     11.51500183	      8.69371146	     33.77190884	     25.62433693	      7.11116294	      4.68194757	      3.11771590	     39.63089020	      0.00000000	      0.00000000	      0.00000000	     16.92910823	      0.24539338	      0.00000000	      3.49443342	      4.48896549	      1.39504921	     30.76353060	      1.32255767	      3.18948455	      8.57380630	     17.56583199	      5.54662385	      2.08757924	     11.69071309	     12.60345650	      5.32950429	      6.10162725	      6.73919192	      0.00000000	      8.82840702	     14.92995944	     14.69308348	      3.03636541	     11.68232922	      8.24727946	      0.00000000	      4.91943311	      8.78793561	      7.02663128	      0.00000000	      3.15188004	      7.55640059	     11.51500183	      8.69371146	     33.77190884	     25.62433693	      7.11116294	      4.68194757	      3.11771590	     24.16202536	      0.00000000	      0.00000000	      0.00000000	     14.41310024	      7.74614882	     57.68060782	     58.22074766	      8.38663727	      7.81254030	     16.92183406	      9.65597332	     21.99021472	      3.95354683	     11.01201372	      3.71418218	     50.20016479	     50.20016479	     19.10357643	     19.10357643	     35.98869480	     35.98869480	     13.00938282	    165.37661116	     24.04353681	    -13.86447893	      0.36664576	      4.92637800	    -13.00938282	   -165.37661116	    -24.04353681	      5.04797499	     -0.64371420	      1.74975765	    -13.15639284	     19.83294508	     -0.01578607	      0.48851790	      0.31701038	     -5.39881091	     13.15639284	    -19.83294508	      0.01578607	     -0.43656628	     -0.28639224	      0.56872706	    -48.98457945	   -477.09181765	    123.46759524	    -11.67933616	      1.74383390	      2.13444842	     48.98457945	    477.09181765	   -123.46759524	     60.02390749	     -0.58908549	     21.50786443	    -61.45425092	   -357.67830418	    -85.18914995	     12.06664883	     -2.43070015	      1.49589443	     61.45425092	    357.67830418	     85.18914995	    -43.83301439	      1.41345510	     25.69095609	     27.51681143	     -3.04668424	      0.00000000	      0.00000000	      0.00000000	      0.00000000	    -32.95435357	      0.00000000	      0.00000000	      0.00000000	      0.00000000	      0.00000000	      0.00000001	      0.00000000
      0.10445507	      3.93263172	     11.62490853	     12.53359971	      5.30035391	      6.06946669	      6.71135619	    115.64572124	    168.96547372	    252.85412678	    384.92994426	    125.04703424	     11.61536255	      8.20257158	      0.00000000	      4.90986430	      8.73735158	      4.97542662	      0.00000000	     99.49556955	      7.51428784	     11.44930555	      8.64345531	     33.64765596	     25.48292267	      7.11365950	      4.66169084	      3.32814283	     39.46392201	      0.00000000	      0.00000000	      0.00000000	     17.97757740	      0.17059439	      0.00000000	      2.93292152	      4.17712221	      1.16542616	     31.57823085	      1.42248645	      3.11300590	      9.09033097	     17.49569307	      5.52187626	      3.93263172	     11.62490853	     12.53359971	      5.30035391	      6.06946669	      6.71135619	      0.00000000	      8.77596790	     14.93334225	     14.61098618	      3.01983172	     11.61536255	      8.20257158	      0.00000000	      4.90986430	      8.73735158	      6.99709469	      0.00000000	      3.13443501	      7.51428784	     11.44930555	      8.64345531	     33.64765596	     25.48292267	      7.11365950	      4.66169084	      3.32814283	     24.04196395	      0.00000000	      0.00000000	      0.00000000	     14.78559989	      7.88355076	     57.78516732	     58.13875340	      8.29292944	      7.71309456	     16.90938999	      9.62391963	     21.95912894	      3.93207450	     11.12796916	      3.75854736	     49.92502438	     49.92502438	     18.99198329	     18.99198329	     35.88566944	     35.88566944	     12.67038454	    164.16385884	     24.34414076	    -13.95501764	      0.36565530	      4.76965292	    -12.67038454	   -164.16385884	    -24.34414076	      5.01551114	     -0.64666080	      1.77803893	    -14.13369006	     21.15849104	      0.10785858	      0.46718600	      0.33666853	     -5.80462600	     14.13369006	    -21.15849104	     -0.10785858	     -0.46017089	     -0.30553347	      0.61615282	    -49.60128623	   -482.51705715	    124.88618664	    -11.82114076	      1.77525932	      2.19431275	     49.60128623	    482.51705715	   -124.88618664	     60.70390442	     -0.59520242	     21.77988018	    -62.08660405	   -346.68160471	    -83.60514923	     11.72144651	     -2.43948261	      1.41143465	     62.08660405	    346.68160471	     83.60514923	    -42.91783877	      1.43204328	     25.93303826	     26.31344299	     -4.27888981	      0.00000000	      0.00000000	      0.00000000	      0.00000000	    -32.30572100	      0.00000000	      0.00000000	      0.00000000	      0.00000000	      0.00000000	      0.00000001	      0.00000000
      0.10527782	      5.35399503	     11.55978493	     12.46428755	      5.27153107	      6.03767135	      6.68307933	    114.99531587	    168.02987849	    251.24467904	    383.53059448	    124.98338997	     11.54915716	      8.15836438	      0.00000000	      4.89886182	      8.68718932	      4.98585872	      0.00000000	     99.31648318	      7.47253759	     11.38433599	      8.59376623	     33.52484437	     25.34313817	      7.10880123	      4.64164728	      3.52474115	     39.29310569	      0.00000000	      0.00000000	      0.00000000	     19.15388955	      0.11475017	      0.00000000	      2.34956592	      3.86031882	      0.94272619	     30.48139953	      1.54243194	      3.06571466	      7.72938955	     17.42630213	      5.49754423	      5.35399503	     11.55978493	     12.46428755	      5.27153107	      6.03767135	      6.68307933	      0.00000000	      8.72412449	     14.93306237	     14.52981815	      3.00348350	     11.54915716	      8.15836438	      0.00000000	      4.89886182	      8.68718932	      6.96775258	      0.00000000	      3.11718677	      7.47253759	     11.38433599	      8.59376623	     33.52484437	     25.34313817	      7.10880123	      4.64164728	      3.52474115	     23.92193765	      0.00000000	      0.00000000	      0.00000000	     15.14112206	      8.01480019	     57.87521218	     58.05521617	      8.20074726	      7.61503354	     16.89429663	      9.59128997	     21.92689964	      3.91082945	     11.23943392	      3.80007383	     49.65297757	     49.65297757	     18.88165460	     18.88165460	     35.78384923	     35.78384923	     11.31165029	    163.42595309	     25.00211933	    -14.21140779	      0.32979354	      4.18037422	    -11.31165029	   -163.42595309	    -25.00211933	      5.01317011	     -0.61628721	      1.85382422	    -14.36059761	     22.27557919	      0.30338923	      0.41133281	      0.34277678	     -5.89304149	     14.36059761	    -22.27557919	     -0.30338923	     -0.47732844	     -0.31365974	      0.63136554	    -51.41288770	   -485.91567970	    124.05044316	    -11.84191085	      1.80607862	      2.19250566	     51.41288770	    485.91567970	   -124.05044316	     60.39520617	     -0.62637229	     22.55148434	    -61.39621199	   -335.55686632	    -81.75981255	     11.36193619	     -2.41574920	      1.37571109	     61.39621199	    335.55686632	     81.75981255	    -41.88831389	      1.42401368	     25.61783930	     25.22070614	     -5.35259907	      0.00000000	      0.00000000	      0.00000000	      0.00000000	    -31.80996702	      0.00000000	      0.00000000	      0.00000000	      0.00000000	      0.00000000	      0.00000001	      0.00000000
